REM DIRINDEX 1\2\6,1\2\7,1\2\8,1\3\9,1\3\10,1\3\11,1\4\12,1\4\13,1\4\14,1\5\15,1\5\16,1\5\17,1\5\18
REM DIRNAME folder01,folder02,folder03,folder04,folder05,folder06,folder07,folder08,folder09,folder10,folder11,folder12,folder13,folder14,folder15,folder16,folder17,folder18
TITLE ""
FILE "" MP3
  TRACK 01 AUDIO
    TITLE "16:cjc019_6549"
    INDEX 01 00:00:00
  TRACK 02 AUDIO
    TITLE "0:"
    INDEX 01 00:01:01
  TRACK 03 AUDIO
    TITLE "18:cjc019_6550"
    INDEX 01 00:01:58
  TRACK 04 AUDIO
    TITLE "0:"
    INDEX 01 00:04:03
  TRACK 05 AUDIO
    TITLE "17:cjc019_6551"
    INDEX 01 00:04:56
  TRACK 06 AUDIO
    TITLE "0:"
    INDEX 01 00:05:67
  TRACK 07 AUDIO
    TITLE "16:cjc019_6552"
    INDEX 01 00:07:47
  TRACK 08 AUDIO
    TITLE "0:"
    INDEX 01 00:09:06
  TRACK 09 AUDIO
    TITLE "18:cjc019_6553"
    INDEX 01 00:09:61
  TRACK 10 AUDIO
    TITLE "0:"
    INDEX 01 00:10:68
  TRACK 11 AUDIO
    TITLE "17:cjc019_6554"
    INDEX 01 00:11:44
  TRACK 12 AUDIO
    TITLE "0:"
    INDEX 01 00:13:00
  TRACK 13 AUDIO
    TITLE "16:cjc019_6555"
    INDEX 01 00:14:58
  TRACK 14 AUDIO
    TITLE "0:"
    INDEX 01 00:16:22
  TRACK 15 AUDIO
    TITLE "18:cjc019_6556"
    INDEX 01 00:17:02
  TRACK 16 AUDIO
    TITLE "0:"
    INDEX 01 00:18:19
  TRACK 17 AUDIO
    TITLE "17:cjc019_6557"
    INDEX 01 00:18:70
  TRACK 18 AUDIO
    TITLE "0:"
    INDEX 01 00:20:36
  TRACK 19 AUDIO
    TITLE "16:cjc019_6558"
    INDEX 01 00:22:19
  TRACK 20 AUDIO
    TITLE "0:"
    INDEX 01 00:23:42
  TRACK 21 AUDIO
    TITLE "18:cjc019_6559"
    INDEX 01 00:24:16
  TRACK 22 AUDIO
    TITLE "0:"
    INDEX 01 00:27:63
  TRACK 23 AUDIO
    TITLE "17:cjc019_6560"
    INDEX 01 00:28:37
  TRACK 24 AUDIO
    TITLE "0:"
    INDEX 01 00:29:66
  TRACK 25 AUDIO
    TITLE "16:cjc019_6561"
    INDEX 01 00:31:47
  TRACK 26 AUDIO
    TITLE "0:"
    INDEX 01 00:33:07
  TRACK 27 AUDIO
    TITLE "18:cjc019_6562"
    INDEX 01 00:33:58
  TRACK 28 AUDIO
    TITLE "0:"
    INDEX 01 00:36:27
  TRACK 29 AUDIO
    TITLE "17:cjc019_6563"
    INDEX 01 00:37:07
  TRACK 30 AUDIO
    TITLE "0:"
    INDEX 01 00:38:39
  TRACK 31 AUDIO
    TITLE "16:cjc019_6564"
    INDEX 01 00:40:23
  TRACK 32 AUDIO
    TITLE "0:"
    INDEX 01 00:41:51
  TRACK 33 AUDIO
    TITLE "18:cjc019_6565"
    INDEX 01 00:42:33
  TRACK 34 AUDIO
    TITLE "0:"
    INDEX 01 00:50:37
  TRACK 35 AUDIO
    TITLE "17:cjc019_6566"
    INDEX 01 00:51:18
  TRACK 36 AUDIO
    TITLE "0:"
    INDEX 01 00:52:45
  TRACK 37 AUDIO
    TITLE "16:cjc019_6567"
    INDEX 01 00:54:29
  TRACK 38 AUDIO
    TITLE "0:"
    INDEX 01 00:55:63
  TRACK 39 AUDIO
    TITLE "18:cjc019_6568"
    INDEX 01 00:56:41
  TRACK 40 AUDIO
    TITLE "0:"
    INDEX 01 00:59:00
  TRACK 41 AUDIO
    TITLE "17:cjc019_6569"
    INDEX 01 00:59:53
  TRACK 42 AUDIO
    TITLE "0:"
    INDEX 01 01:01:07
  TRACK 43 AUDIO
    TITLE "16:cjc019_6570"
    INDEX 01 01:02:69
  TRACK 44 AUDIO
    TITLE "0:"
    INDEX 01 01:04:27
  TRACK 45 AUDIO
    TITLE "18:cjc019_6571"
    INDEX 01 01:05:17
  TRACK 46 AUDIO
    TITLE "0:"
    INDEX 01 01:09:09
  TRACK 47 AUDIO
    TITLE "17:cjc019_6572"
    INDEX 01 01:09:63
  TRACK 48 AUDIO
    TITLE "0:"
    INDEX 01 01:11:25
  TRACK 49 AUDIO
    TITLE "16:cjc019_6573"
    INDEX 01 01:13:04
  TRACK 50 AUDIO
    TITLE "0:"
    INDEX 01 01:14:45
  TRACK 51 AUDIO
    TITLE "18:cjc019_6574"
    INDEX 01 01:15:31
  TRACK 52 AUDIO
    TITLE "0:"
    INDEX 01 01:16:40
  TRACK 53 AUDIO
    TITLE "17:cjc019_6575"
    INDEX 01 01:17:20
  TRACK 54 AUDIO
    TITLE "0:"
    INDEX 01 01:18:58
  TRACK 55 AUDIO
    TITLE "16:cjc019_6576"
    INDEX 01 01:20:38
  TRACK 56 AUDIO
    TITLE "0:"
    INDEX 01 01:21:45
  TRACK 57 AUDIO
    TITLE "18:cjc019_6577"
    INDEX 01 01:22:29
  TRACK 58 AUDIO
    TITLE "0:"
    INDEX 01 01:24:37
  TRACK 59 AUDIO
    TITLE "17:cjc019_6578"
    INDEX 01 01:25:15
  TRACK 60 AUDIO
    TITLE "0:"
    INDEX 01 01:26:25
  TRACK 61 AUDIO
    TITLE "16:cjc019_6579"
    INDEX 01 01:28:14
  TRACK 62 AUDIO
    TITLE "0:"
    INDEX 01 01:29:37
  TRACK 63 AUDIO
    TITLE "18:cjc019_6580"
    INDEX 01 01:30:17
  TRACK 64 AUDIO
    TITLE "0:"
    INDEX 01 01:31:30
  TRACK 65 AUDIO
    TITLE "17:cjc019_6581"
    INDEX 01 01:32:06
  TRACK 66 AUDIO
    TITLE "0:"
    INDEX 01 01:33:31
  TRACK 67 AUDIO
    TITLE "16:cjc019_6582"
    INDEX 01 01:35:08
  TRACK 68 AUDIO
    TITLE "0:"
    INDEX 01 01:36:27
  TRACK 69 AUDIO
    TITLE "18:cjc019_6583"
    INDEX 01 01:37:13
  TRACK 70 AUDIO
    TITLE "0:"
    INDEX 01 01:40:40
  TRACK 71 AUDIO
    TITLE "17:cjc019_6584"
    INDEX 01 01:41:14
  TRACK 72 AUDIO
    TITLE "0:"
    INDEX 01 01:42:37
